<svg width="18" height="18" viewBox="0 0 18 18" fill="none" xmlns="http://www.w3.org/2000/svg">
<path d="M14.3333 3.66675H3.66665C2.93331 3.66675 2.33998 4.26675 2.33998 5.00008L2.33331 13.0001C2.33331 13.7334 2.93331 14.3334 3.66665 14.3334H14.3333C15.0666 14.3334 15.6666 13.7334 15.6666 13.0001V5.00008C15.6666 4.26675 15.0666 3.66675 14.3333 3.66675ZM14.0666 6.50008L9.35331 9.44675C9.13998 9.58008 8.85998 9.58008 8.64665 9.44675L3.93331 6.50008C3.86646 6.46256 3.80793 6.41186 3.76124 6.35105C3.71455 6.29025 3.68069 6.2206 3.6617 6.14633C3.64271 6.07206 3.63898 5.9947 3.65075 5.91895C3.66252 5.8432 3.68954 5.77062 3.73017 5.70562C3.7708 5.64061 3.8242 5.58452 3.88713 5.54074C3.95007 5.49697 4.02123 5.46642 4.09631 5.45095C4.17139 5.43547 4.24884 5.43539 4.32395 5.45071C4.39906 5.46603 4.47029 5.49644 4.53331 5.54008L8.99998 8.33341L13.4666 5.54008C13.5297 5.49644 13.6009 5.46603 13.676 5.45071C13.7511 5.43539 13.8286 5.43547 13.9036 5.45095C13.9787 5.46642 14.0499 5.49697 14.1128 5.54074C14.1758 5.58452 14.2292 5.64061 14.2698 5.70562C14.3104 5.77062 14.3374 5.8432 14.3492 5.91895C14.361 5.9947 14.3573 6.07206 14.3383 6.14633C14.3193 6.2206 14.2854 6.29025 14.2387 6.35105C14.192 6.41186 14.1335 6.46256 14.0666 6.50008V6.50008Z" fill="#0283C1"/>
<rect x="0.5" y="0.5" width="17" height="17" stroke="white"/>
</svg>
