<svg width="18" height="18" viewBox="0 0 18 18" fill="none" xmlns="http://www.w3.org/2000/svg">
<path d="M9 2.5C5.41031 2.5 2.5 5.41031 2.5 9C2.5 12.5897 5.41031 15.5 9 15.5C12.5897 15.5 15.5 12.5897 15.5 9C15.5 5.41031 12.5897 2.5 9 2.5Z" stroke="#0283C1" stroke-miterlimit="10"/>
<path d="M9 2.5C7.18531 2.5 5.47906 5.41031 5.47906 9C5.47906 12.5897 7.18531 15.5 9 15.5C10.8147 15.5 12.5209 12.5897 12.5209 9C12.5209 5.41031 10.8147 2.5 9 2.5Z" stroke="#0283C1" stroke-miterlimit="10"/>
<path d="M4.66656 4.6665C5.86156 5.51494 7.36594 6.02088 9 6.02088C10.6341 6.02088 12.1384 5.51494 13.3334 4.6665" stroke="#0283C1" stroke-linecap="round" stroke-linejoin="round"/>
<path d="M13.3334 13.3334C12.1384 12.4849 10.6341 11.979 9 11.979C7.36594 11.979 5.86156 12.4849 4.66656 13.3334" stroke="#0283C1" stroke-linecap="round" stroke-linejoin="round"/>
<path d="M9 2.5V15.5" stroke="#0283C1" stroke-miterlimit="10"/>
<path d="M16.3334 9.32007H1.66669" stroke="#0283C1" stroke-miterlimit="10"/>
<rect x="0.5" y="0.5" width="17" height="17" stroke="white"/>
</svg>
