<svg width="18" height="18" viewBox="0 0 18 18" fill="none" xmlns="http://www.w3.org/2000/svg">
<path d="M2.37926 13.0934C3.17276 13.7339 4.11401 14.0469 4.98401 13.9767C6.58801 13.8787 9.07651 12.7587 11.528 10.9077C14.3475 8.77942 16.2635 6.32942 16.458 4.79067C16.6145 3.77967 16.3365 2.61692 15.6053 1.62717C14.965 0.760918 9.91601 4.57267 10.556 5.43867C11.0473 6.10367 11.6705 6.59142 12.3305 6.88192C11.6623 7.55517 10.8893 8.23292 10.0313 8.88142C9.16851 9.53242 8.30226 10.0909 7.47076 10.5489C7.38176 9.82717 7.09601 9.08542 6.60526 8.42142C5.96476 7.55542 0.916009 11.3674 1.55601 12.2334C1.69756 12.4242 1.85316 12.6041 2.02151 12.7717C1.41126 13.1897 1.48226 13.6784 1.55251 13.8899C1.78751 14.5934 2.84901 15.0634 3.73676 14.8572C4.37951 14.7072 5.05576 14.7504 5.55576 14.9567C5.40051 15.2429 5.32176 15.5217 5.32151 15.6792C5.32151 16.1274 5.55176 16.3269 5.68901 16.4054C5.76651 16.4504 5.85201 16.4792 5.94051 16.4919C6.11671 16.5172 6.29627 16.4814 6.44926 16.3904C6.65151 16.2689 6.76951 16.0632 6.76576 15.8404C6.75851 15.4407 6.57251 15.0854 6.22726 14.8129C6.22501 14.8117 6.22326 14.8097 6.22101 14.8082C6.34076 14.6787 6.48476 14.5687 6.65326 14.5087C6.83041 14.4438 7.02379 14.438 7.20451 14.4922C7.00926 14.8894 6.92976 15.3442 7.06951 15.7109C7.19326 16.0357 7.52351 16.2122 7.87301 16.1387C8.22401 16.0654 8.45976 15.7704 8.44576 15.4209C8.43001 15.0132 8.20901 14.6032 7.86151 14.3247C7.97051 14.1982 8.09101 14.0992 8.21001 14.0487C8.44801 13.9477 8.67176 13.9494 8.89301 14.0532C8.96201 14.0859 9.02726 14.1264 9.08801 14.1724C9.02261 14.2452 8.96497 14.3247 8.91601 14.4094C8.74051 14.7139 8.70476 15.0582 8.81551 15.3794C8.96651 15.8159 9.33226 15.9162 9.60751 15.8234C9.95651 15.7069 10.223 15.2812 10.065 14.7714C10.0198 14.6259 9.91801 14.4189 9.76676 14.2152L9.73476 14.1804C9.88526 14.0722 10.0988 13.9654 10.3633 13.9622C10.3328 14.2862 10.3698 14.5734 10.4313 14.7184C10.607 15.1307 10.8968 15.2237 11.054 15.2427C11.1429 15.2532 11.233 15.2466 11.3195 15.2234C11.4914 15.1773 11.6424 15.074 11.7475 14.9304C11.8858 14.7392 11.914 14.5039 11.8228 14.3002C11.6595 13.9357 11.3488 13.6817 10.9243 13.5664L10.9168 13.5644C10.976 13.3984 11.0655 13.2404 11.1965 13.1192C11.3342 12.9901 11.5098 12.9089 11.6973 12.8877C11.6733 13.3297 11.7788 13.7792 12.051 14.0614C12.2925 14.3119 12.6655 14.3447 12.958 14.1399C13.2523 13.9349 13.3533 13.5712 13.2033 13.2552C13.0285 12.8859 12.6648 12.5957 12.2358 12.4759C12.2863 12.3167 12.3585 12.1784 12.448 12.0852C12.6278 11.8992 12.8338 11.8127 13.0783 11.8214C13.1548 11.8244 13.2305 11.8362 13.3043 11.8542C13.2728 11.9469 13.2509 12.0427 13.239 12.1399C13.197 12.4889 13.2993 12.8197 13.527 13.0719C13.837 13.4144 14.2128 13.3632 14.4295 13.1699C14.705 12.9257 14.783 12.4297 14.4375 12.0224C14.339 11.9062 14.1643 11.7562 13.9453 11.6282C14.097 11.4234 14.3135 11.2247 14.5818 11.0474C14.6327 11.0133 14.6681 10.9604 14.6802 10.9003C14.6923 10.8402 14.6801 10.7778 14.6463 10.7267C14.6298 10.7012 14.6085 10.6793 14.5836 10.6621C14.5587 10.6449 14.5306 10.6328 14.5009 10.6265C14.4713 10.6203 14.4407 10.6199 14.411 10.6255C14.3812 10.6311 14.3528 10.6426 14.3275 10.6592C13.9765 10.8914 13.7013 11.1552 13.5138 11.4347C13.3769 11.3903 13.2347 11.3646 13.091 11.3584C12.72 11.3447 12.383 11.4842 12.1168 11.7614C11.9618 11.9222 11.844 12.1557 11.7728 12.4179C11.4388 12.4279 11.1265 12.5517 10.8838 12.7769C10.6705 12.9742 10.5343 13.2327 10.4533 13.4994C9.99351 13.4859 9.61276 13.7102 9.42126 13.8487C9.31938 13.7626 9.20698 13.6897 9.08676 13.6319C8.75076 13.4737 8.38601 13.4699 8.03226 13.6202C7.82676 13.7072 7.62676 13.8759 7.45826 14.0892C7.14726 13.9674 6.81126 13.9587 6.49976 14.0709C6.22626 14.1687 5.99951 14.3529 5.82026 14.5664C5.22076 14.2897 4.41326 14.2232 3.63376 14.4044C2.92176 14.5699 2.13401 14.1784 1.98776 13.7412C1.89126 13.4529 2.14051 13.2327 2.37926 13.0934V13.0934ZM13.695 12.1999C13.7015 12.1459 13.7135 12.0914 13.7303 12.0369C13.8983 12.1377 14.028 12.2509 14.0885 12.3224C14.2753 12.5429 14.2095 12.7452 14.1243 12.8212C14.03 12.9042 13.9318 12.8344 13.8655 12.7612C13.7278 12.6092 13.6693 12.4152 13.695 12.1999ZM12.7878 13.4524C12.8693 13.6244 12.7235 13.7377 12.6938 13.7587C12.6643 13.7797 12.5098 13.8759 12.3793 13.7407C12.208 13.5632 12.1418 13.2497 12.1558 12.9349C12.437 13.0249 12.6778 13.2189 12.7878 13.4524ZM10.8213 14.0177C11.1035 14.0977 11.2993 14.2559 11.403 14.4882C11.4325 14.5534 11.4038 14.6147 11.3748 14.6549C11.3118 14.7414 11.2005 14.7937 11.1045 14.7824C10.9765 14.7669 10.8973 14.6414 10.8533 14.5382C10.8248 14.4712 10.7995 14.2639 10.8213 14.0177V14.0177ZM9.31226 14.6427C9.33951 14.5957 9.37176 14.5504 9.40876 14.5064C9.52376 14.6652 9.59876 14.8204 9.62626 14.9094C9.71176 15.1854 9.57151 15.3459 9.46326 15.3824C9.34426 15.4217 9.28126 15.3189 9.24901 15.2257C9.18201 15.0324 9.20401 14.8307 9.31226 14.6427ZM7.60851 14.7149C7.83176 14.9082 7.97701 15.1809 7.98676 15.4389C7.99426 15.6294 7.81576 15.6759 7.78026 15.6837C7.74476 15.6914 7.56501 15.7194 7.49826 15.5434C7.41026 15.3134 7.47201 14.9992 7.60851 14.7149ZM5.95576 15.1877C6.18401 15.3719 6.30201 15.5944 6.30626 15.8489C6.30801 15.9202 6.25751 15.9654 6.21476 15.9909C6.12326 16.0459 6.00051 16.0499 5.91651 16.0022C5.80476 15.9379 5.78101 15.7912 5.78126 15.6792C5.78101 15.6062 5.83926 15.4054 5.95576 15.1877Z" fill="#0283C1"/>
<rect x="0.5" y="0.5" width="17" height="17" stroke="white"/>
</svg>
