<svg width="17" height="17" viewBox="0 0 17 17" fill="none" xmlns="http://www.w3.org/2000/svg">
<path d="M1.62388 15.3792L1.85354 14.5353L2.701 11.4212C2.13026 10.3722 1.83136 9.19559 1.83332 7.9991M1.62388 15.3792L2.33332 7.99992M1.62388 15.3792L2.4676 15.149L5.58025 14.2996M1.62388 15.3792L2.89574 14.5139M1.83332 7.9991L2.33332 7.99992M1.83332 7.9991C1.83332 7.99937 1.83332 7.99965 1.83332 7.99992H2.33332M1.83332 7.9991C1.83377 4.04133 5.04212 0.833252 8.99999 0.833252C12.9581 0.833252 16.1667 4.04178 16.1667 7.99992C16.1667 11.9579 12.9583 15.1664 9.00039 15.1666C7.80464 15.1684 6.62875 14.8698 5.58025 14.2996M2.33332 7.99992C2.33332 4.31792 5.31799 1.33325 8.99999 1.33325C12.682 1.33325 15.6667 4.31792 15.6667 7.99992C15.6667 11.6819 12.682 14.6666 8.99999 14.6666C7.82184 14.6685 6.66443 14.3567 5.64666 13.7633M5.58025 14.2996L5.77827 14.2456L5.64666 13.7633M5.58025 14.2996C5.51798 14.2658 5.45615 14.231 5.3948 14.1952L5.64666 13.7633M5.64666 13.7633L2.89574 14.5139M2.89574 14.5139L2.81844 14.7979L2.33599 14.6666L2.20437 14.1842L2.48835 14.1067M2.89574 14.5139L2.48835 14.1067M2.48835 14.1067L3.23732 11.3546L2.48835 14.1067ZM6.69235 5.36677L6.62497 5.37096C6.60962 5.37191 6.59456 5.37537 6.58037 5.38119C6.55493 5.39699 6.53153 5.41591 6.51072 5.4375L6.50229 5.44626L6.49343 5.4546C6.4577 5.48824 6.44019 5.51125 6.40156 5.56201L6.69235 5.36677ZM6.69235 5.36677C6.7376 5.36527 6.78289 5.36552 6.82813 5.36751C6.99474 5.74783 7.15739 6.13029 7.31525 6.51408M6.69235 5.36677L7.31525 6.51408M11.4131 10.2947L11.4204 10.2896C11.4296 10.2831 11.4458 10.2716 11.4684 10.2544L11.4724 10.2515L11.4724 10.2515C11.5435 10.1988 11.5767 10.1699 11.6288 10.1155L11.6302 10.114C11.65 10.0935 11.6665 10.0702 11.6789 10.0442L11.679 10.0441C11.6979 10.0045 11.7386 9.86402 11.7574 9.72321L11.5485 9.62955L11.5479 9.62925L11.5435 9.62737L11.5244 9.619L11.4534 9.588C11.3932 9.56167 11.3093 9.52488 11.2142 9.48302C11.06 9.41512 10.8751 9.33324 10.7145 9.26087C10.643 9.34388 10.5192 9.49063 10.3074 9.74714C10.2214 9.85767 10.1054 9.94133 9.97307 9.98807C9.83575 10.0366 9.6871 10.0431 9.54605 10.0068L9.54149 10.0056L9.54149 10.0056C9.47561 9.988 9.41107 9.96574 9.34834 9.939C9.28624 9.91295 9.24973 9.89687 9.21523 9.88168C9.20437 9.8769 9.19371 9.8722 9.18252 9.86732L9.17907 9.86594L9.17193 9.86282C8.74332 9.67569 8.34646 9.42299 7.99559 9.11379C7.92231 9.04975 7.84819 8.97692 7.78807 8.91785C7.76944 8.89954 7.75215 8.88255 7.73665 8.86756C7.73637 8.86729 7.73609 8.86702 7.73581 8.86675L8.08332 8.50725L11.4131 10.2947ZM11.4131 10.2947C11.3447 10.3381 11.2744 10.3783 11.2024 10.4154L11.2023 10.4154L11.1963 10.4186C11.0895 10.4755 10.9716 10.5082 10.8508 10.5146C10.8506 10.5146 10.8504 10.5146 10.8502 10.5146L11.4131 10.2947ZM7.31525 6.51408C7.27351 6.57912 7.22869 6.64213 7.18092 6.70289L7.18064 6.70325C7.15322 6.73819 7.10294 6.79646 7.05285 6.85299C7.02917 6.87971 7.00764 6.90368 6.99203 6.92097L6.97373 6.94118L6.96892 6.94647L6.96776 6.94773L6.96752 6.948L6.9675 6.94802L6.96749 6.94803L6.96748 6.94804L6.96748 6.94804L6.96039 6.95581L6.95361 6.96388L7.33666 7.28525C6.95361 6.96388 6.95349 6.96403 6.95336 6.96419L6.9531 6.96449L6.95259 6.96511L6.95153 6.96638L6.94933 6.96905L6.94458 6.97495L6.93374 6.989C6.926 6.99933 6.91708 7.01187 6.90757 7.02649C6.8889 7.0552 6.86603 7.09486 6.84546 7.1441C6.80529 7.24027 6.76348 7.39976 6.8119 7.58706L6.81718 7.60749L6.82417 7.62741C6.85385 7.71204 6.89363 7.79277 6.94264 7.86786L6.97757 7.92409L7.31525 6.51408ZM7.89679 9.22566C8.56744 9.81601 9.36535 10.2433 10.2282 10.4744L10.5544 10.5243L7.89679 9.22566ZM7.89679 9.22566C7.78375 9.12564 7.6782 9.02016 7.55953 8.90155C7.53585 8.87788 7.51164 8.85368 7.48674 8.8289L7.89679 9.22566ZM6.09998 6.41046C6.09834 6.11721 6.19445 5.83177 6.37312 5.59924L7.48671 8.82887C6.9302 8.27486 6.51973 7.68731 6.2758 7.14974C6.16394 6.90002 6.10097 6.65176 6.09999 6.41121L6.09998 6.41046ZM11.765 9.54126L11.7652 9.54495L11.765 9.54126Z" fill="#0283C1" stroke="white"/>
</svg>
